<?xml version="1.0" ?><svg baseProfile="tiny" height="24px" id="Layer_1" version="1.2" viewBox="0 0 24 24" width="24px" xml:space="preserve" xmlns="http://www.w3.org/2000/svg" xmlns:xlink="http://www.w3.org/1999/xlink"><path d="M17.657,5.304c-3.124-3.073-8.189-3.073-11.313,0c-3.124,3.074-3.124,8.057,0,11.13L12,21.999l5.657-5.565  C20.781,13.361,20.781,8.378,17.657,5.304z M12,13.499c-0.668,0-1.295-0.26-1.768-0.732c-0.975-0.975-0.975-2.561,0-3.536  c0.472-0.472,1.1-0.732,1.768-0.732s1.296,0.26,1.768,0.732c0.975,0.975,0.975,2.562,0,3.536C13.296,13.239,12.668,13.499,12,13.499  z"/></svg>